<svg xmlns="http://www.w3.org/2000/svg" width="108" height="38" viewBox="0 0 108 38"><path d="M44.498 26.809a1.966 1.966 0 0 0 .551-.105v1.33a3.24 3.24 0 0 1-1.178.21 1.662 1.662 0 0 1-1.662-.95 4.826 4.826 0 0 1-3.135 1.073c-1.511 0-2.907-.827-2.907-2.546 0-2.128 1.976-2.784 3.705-2.784a11.049 11.049 0 0 1 2.166.247v-.294c0-1.036-.76-1.767-2.185-1.767a7.4 7.4 0 0 0-2.993.636v-1.7a10.184 10.184 0 0 1 3.183-.551c2.356 0 3.8 1.121 3.8 3.639v2.983a.541.541 0 0 0 .655.579zm-6.422-1.13a1.349 1.349 0 0 0 1.558 1.225 3.382 3.382 0 0 0 2.404-.95v-1.435a9.7 9.7 0 0 0-1.805-.209c-1.045.01-2.157.333-2.157 1.378zm12.331-6.09a5.026 5.026 0 0 1 2.565.636v1.701a4.066 4.066 0 0 0-2.299-.694 2.745 2.745 0 1 0 0 5.472 4.997 4.997 0 0 0 2.423-.636v1.71a6.251 6.251 0 0 1-2.755.57 4.199 4.199 0 0 1-4.484-4.313 4.313 4.313 0 0 1 4.55-4.446zm12.141 7.22a1.966 1.966 0 0 0 .551-.105v1.33a3.24 3.24 0 0 1-1.178.21 1.662 1.662 0 0 1-1.662-.95 4.826 4.826 0 0 1-3.135 1.073c-1.511 0-2.907-.827-2.907-2.546 0-2.128 1.976-2.784 3.705-2.784a11.049 11.049 0 0 1 2.166.247v-.294c0-1.036-.76-1.767-2.185-1.767a7.4 7.4 0 0 0-2.993.636v-1.7a10.184 10.184 0 0 1 3.183-.551c2.355 0 3.8 1.121 3.8 3.638v2.983a.541.541 0 0 0 .655.58zm-6.422-1.13a1.349 1.349 0 0 0 1.558 1.225 3.382 3.382 0 0 0 2.404-.95v-1.435a9.7 9.7 0 0 0-1.805-.209c-1.055.01-2.157.333-2.157 1.378zm16.71-9.672V28.13h-1.671v-1.32a3.867 3.867 0 0 1-3.183 1.539 4.389 4.389 0 0 1 0-8.759 3.8 3.8 0 0 1 2.993 1.301v-4.883h1.9zm-4.521 5.206a2.755 2.755 0 0 0 0 5.51 2.85 2.85 0 0 0 2.65-1.748v-2.023a2.907 2.907 0 0 0-2.65-1.739zM78.84 19.59c3.306 0 4.446 2.67 3.914 5.073h-6.251c.208 1.491 1.662 2.109 3.182 2.109a6.09 6.09 0 0 0 2.631-.589v1.596a7.125 7.125 0 0 1-2.982.57c-2.546 0-4.75-1.454-4.75-4.38a4.17 4.17 0 0 1 4.256-4.379zm.085 1.539a2.27 2.27 0 0 0-2.441 2.147h4.607a1.957 1.957 0 0 0-2.166-2.147zm5.719 7.001v-8.312h1.643v1.035a3.8 3.8 0 0 1 2.775-1.263 2.85 2.85 0 0 1 2.593 1.33 4.114 4.114 0 0 1 2.907-1.33 3.05 3.05 0 0 1 3.154 3.344v5.196h-1.9v-5.14a1.586 1.586 0 0 0-1.643-1.748 2.793 2.793 0 0 0-2.062 1.121v5.766h-1.9V22.99a1.586 1.586 0 0 0-1.644-1.748 2.954 2.954 0 0 0-2.204 1.282v5.615h-1.9zm21.252-8.312h1.9l-3.895 9.433c-.903 2.166-2.081 2.85-3.344 2.85a4.75 4.75 0 0 1-1.093-.142v-1.577a2.85 2.85 0 0 0 .846.123c.902 0 1.577-.636 2.061-1.9l.171-.418-3.952-8.379h2.024l2.85 6.27zM38.627 1.453v4.75a3.8 3.8 0 0 1 2.689-1.14 3.24 3.24 0 0 1 3.429 3.392v5.14h-1.9V8.691a1.805 1.805 0 0 0-1.9-1.995 2.926 2.926 0 0 0-2.318 1.387v5.51h-1.9V1.454h1.9zm11.182.846v2.964h3.011v1.624h-3.011v3.8c0 1.093.503 1.454 1.577 1.454a4.474 4.474 0 0 0 1.681-.333v1.596a6.783 6.783 0 0 1-2.232.361 2.546 2.546 0 0 1-2.85-2.736V6.87h-1.52V5.243h1.491V2.736zm5.386 11.276V5.263h1.644v1.035a3.8 3.8 0 0 1 2.774-1.263 2.85 2.85 0 0 1 2.593 1.33 4.114 4.114 0 0 1 2.907-1.33 3.05 3.05 0 0 1 3.154 3.344v5.196h-1.9V8.436a1.586 1.586 0 0 0-1.643-1.748 2.793 2.793 0 0 0-2.062 1.121v5.766h-1.9V8.436a1.586 1.586 0 0 0-1.643-1.748 2.954 2.954 0 0 0-2.205 1.282v5.615h-1.9zm15.77-12.15h1.805v12.16h-1.805zM14.668.019h-.152L0 1.539v26.6l14.516 8.635 14.516-8.635v-26.6zm12.464 27.027l-12.616 7.505L1.9 27.046V16.14l12.559 7.477v1.358l-8.616-5.13v1.311l8.654 5.197v1.387l-8.645-5.149v1.311l8.655 5.196 8.73-5.225V18.26l3.895-2.328v11.087zm0-12.502l-3.467 2.033-1.596.95-7.6-4.522v1.311l6.498 3.867h-.057l-.143.085-.95.542-5.358-3.192v1.311l4.228 2.517-.998.665-3.192-1.9v1.311l2.1 1.235-2.138 1.283-12.502-7.429 12.512-7.524zm0-1.32L14.45 5.747 1.91 13.214V3.24l12.616-1.32 12.616 1.32v9.985z" fill="#fff"/></svg>