<svg version="1" xmlns="http://www.w3.org/2000/svg" width="682.667" height="682.667" viewBox="0 0 512.000000 512.000000"><path d="M235 1C175 6.5 121.3 30.9 78.6 72c-41.2 39.8-66.9 89.7-75.8 147.5-3 19.9-3 53.1 0 73 5.9 38.2 18.6 71.9 38.9 103 40 61.2 104.5 102.6 178.3 114.1 16.3 2.6 55.7 2.6 72.5 0 37.2-5.7 73.7-19.6 103.6-39.5 17.3-11.5 27.4-19.7 40.8-33.2 39.1-39 64.3-89.2 72.7-144.4 2.3-14.9 2.6-55.1.6-68.9-3.9-26.4-13.3-57.2-24.7-80.1C448 67.3 376.7 15.3 292.6 2.9 277.5.7 248.8-.3 235 1zm114.4 76.6c38.8 7.4 71.9 37.9 83 76.6 9.9 34.4 2.2 69.3-21.2 96.5l-6.1 7.1 1.5 4.8c1 3.2 1.4 7.5 1.1 12.4-1.6 29.7-36.2 44.4-59.4 25.4-2.5-2-5.4-5.2-6.6-7l-2.2-3.4H285v-42h5.5c3 0 5.5-.2 5.5-.4s-.9-2.4-2-4.8c-1.1-2.5-2.2-7-2.6-10.1-.7-5.7-.7-5.7-4-5.7-3.1 0-3.4-.3-3.4-2.9 0-2.7-.3-2.9-5.2-3.5-2.9-.4-7.2-1.6-9.5-2.6l-4.3-1.9V228h-44v-55.9l-3.1-2.2c-4.8-3.4-11.6-13.3-13.4-19.7-4.9-16.5 3.5-34.8 19.5-42.8 6.9-3.5 18-4.3 25.4-2l5 1.5 6-5.3c25.2-22 55.9-30.3 89-24zM201.6 226.7c-.4.9-3 1.3-9.1 1.3-4.7 0-8.5-.3-8.5-.7 0-.4 3.9-7.9 8.8-16.7l8.7-16.1.3 15.5c.1 8.5 0 16-.2 16.7zm.2 42.5l.2 21.8h-44v-8.1c0-7.1.4-8.8 2.9-13.3 1.5-2.8 4.9-9 7.5-13.9l4.7-8.8 14.2.3 14.2.3.3 21.7zm62.2-.7v21.4l-21.5.3-21.5.3V247h43v21.5zM201 332v22h-43v-44h43v22zm63-6.8v14.3l-13.5 7.2c-13.3 7.2-13.6 7.3-21 7.3H222v-43h42v14.2zm47-11.1c-3 1.7-10.1 5.5-15.7 8.5l-10.3 5.6V311h31.5l-5.5 3.1zM138 334v20h-21.1l10.1-20c5.6-11 10.4-20 10.6-20 .2 0 .4 9 .4 20zm-.2 55.1l-.3 15.2-8.9 3.4c-11.3 4.4-17.1 5.1-21.9 2.8-4-1.9-6.7-6.5-6.7-11.5 0-3 3.2-13.5 6.4-21.3l1.6-3.7h30.1l-.3 15.1zm57.4-13.1c-1.9 1.2-11 5.9-20.3 10.5L158 395v-21h40.5l-3.3 2z"/></svg>